{
	"asset":{
		"generator":"Khronos glTF Blender I/O v4.4.56",
		"version":"2.0"
	},
	"scene":0,
	"scenes":[
		{
			"name":"Scene",
			"nodes":[
				11
			]
		}
	],
	"nodes":[
		{
			"name":"Cube dec",
			"rotation":[
				-0.45181286334991455,
				0.3775964677333832,
				0.2193002551794052,
				0.7779418230056763
			],
			"scale":[
				418.3307189941406,
				113.48806762695312,
				325.7816467285156
			],
			"translation":[
				-1823.3526611328125,
				355.14984130859375,
				-855.58740234375
			]
		},
		{
			"name":"Cube light",
			"rotation":[
				-0.9321016669273376,
				0.34911441802978516,
				-0.09033729881048203,
				0.03383530303835869
			],
			"scale":[
				359.5815124511719,
				97.55010986328125,
				280.0297546386719
			],
			"translation":[
				-1773.1363525390625,
				316.91265869140625,
				458.8775939941406
			]
		},
		{
			"name":"dec",
			"rotation":[
				-0.70710688829422,
				0,
				0,
				0.7071066498756409
			],
			"scale":[
				22.00794219970703,
				574.7891235351562,
				99.99999237060547
			],
			"translation":[
				-1435.45263671875,
				946.5748291015625,
				-215.33444213867188
			]
		},
		{
			"name":"floor",
			"rotation":[
				-0.70710688829422,
				0,
				0,
				0.7071066498756409
			],
			"scale":[
				4456.01611328125,
				4456.015625,
				341.1469421386719
			],
			"translation":[
				45.13352584838867,
				340.9496154785156,
				4.396462463773787e-05
			]
		},
		{
			"mesh":0,
			"name":"house_house_0"
		},
		{
			"children":[
				4
			],
			"name":"house",
			"rotation":[
				-0.70710688829422,
				0,
				0,
				0.7071066498756409
			],
			"scale":[
				4456.01611328125,
				4456.015625,
				341.1469421386719
			],
			"translation":[
				45.13352584838867,
				340.9496154785156,
				4.396462463773787e-05
			]
		},
		{
			"name":"lighting",
			"rotation":[
				-0.70710688829422,
				0,
				0,
				0.7071066498756409
			],
			"scale":[
				726.4547119140625,
				691.2528076171875,
				22.13798713684082
			],
			"translation":[
				-6.406255579349818e-06,
				52.15879821777344,
				115.18824768066406
			]
		},
		{
			"name":"screen",
			"rotation":[
				-0.70710688829422,
				0,
				0,
				0.7071066498756409
			],
			"scale":[
				100,
				99.99999237060547,
				99.99999237060547
			]
		},
		{
			"name":"stage",
			"rotation":[
				-0.70710688829422,
				0,
				0,
				0.7071066498756409
			],
			"scale":[
				237.37818908691406,
				243.10617065429688,
				10.543623924255371
			],
			"translation":[
				0,
				122.5562515258789,
				-99.5637435913086
			]
		},
		{
			"children":[
				0,
				1,
				2,
				3,
				5,
				6,
				7,
				8
			],
			"name":"RootNode"
		},
		{
			"children":[
				9
			],
			"name":"95aa6071f75145a3bb8b0e977ae4027d.fbx",
			"rotation":[
				0.70710688829422,
				0,
				0,
				0.7071066498756409
			],
			"scale":[
				0.009999999776482582,
				0.010000000707805157,
				0.010000000707805157
			]
		},
		{
			"children":[
				10
			],
			"name":"Sketchfab_model",
			"rotation":[
				-0.70710688829422,
				0,
				0,
				0.7071066498756409
			]
		}
	],
	"materials":[
		{
			"doubleSided":true,
			"emissiveFactor":[
				1,
				1,
				1
			],
			"emissiveTexture":{
				"index":0
			},
			"name":"house.003",
			"pbrMetallicRoughness":{
				"baseColorTexture":{
					"index":1
				},
				"roughnessFactor":0
			}
		}
	],
	"meshes":[
		{
			"name":"house_house_0.003",
			"primitives":[
				{
					"attributes":{
						"POSITION":0,
						"NORMAL":1,
						"TEXCOORD_0":2
					},
					"indices":3,
					"material":0
				}
			]
		}
	],
	"textures":[
		{
			"sampler":0,
			"source":0
		},
		{
			"sampler":0,
			"source":0
		}
	],
	"images":[
		{
			"mimeType":"image/png",
			"name":"house_baseColor",
			"uri":"house_baseColor.png"
		}
	],
	"accessors":[
		{
			"bufferView":0,
			"componentType":5126,
			"count":20,
			"max":[
				1,
				1,
				3.693610668182373
			],
			"min":[
				-1,
				-1,
				-1
			],
			"type":"VEC3"
		},
		{
			"bufferView":1,
			"componentType":5126,
			"count":20,
			"type":"VEC3"
		},
		{
			"bufferView":2,
			"componentType":5126,
			"count":20,
			"type":"VEC2"
		},
		{
			"bufferView":3,
			"componentType":5123,
			"count":30,
			"type":"SCALAR"
		}
	],
	"bufferViews":[
		{
			"buffer":0,
			"byteLength":240,
			"byteOffset":0,
			"target":34962
		},
		{
			"buffer":0,
			"byteLength":240,
			"byteOffset":240,
			"target":34962
		},
		{
			"buffer":0,
			"byteLength":160,
			"byteOffset":480,
			"target":34962
		},
		{
			"buffer":0,
			"byteLength":60,
			"byteOffset":640,
			"target":34963
		}
	],
	"samplers":[
		{
			"magFilter":9729,
			"minFilter":9987
		}
	],
	"buffers":[
		{
			"byteLength":700,
			"uri":"scene.bin"
		}
	]
}
